<mxfile host="65bd71144e">
    <diagram id="YaoRnJcqbORdsGR1Q3Jt" name="Page-2">
        <mxGraphModel dx="830" dy="590" grid="1" gridSize="10" guides="1" tooltips="1" connect="1" arrows="1" fold="1" page="1" pageScale="1" pageWidth="850" pageHeight="1100" background="none" math="0" shadow="0">
            <root>
                <mxCell id="0"/>
                <mxCell id="1" parent="0"/>
                <mxCell id="GjQhn9GalNSHdW4fiU0v-7" value="회원" style="shape=table;startSize=30;container=1;collapsible=1;childLayout=tableLayout;fixedRows=1;rowLines=0;fontStyle=1;align=center;resizeLast=1;fillColor=default;fontColor=#333333;strokeColor=#666666;gradientColor=none;swimlaneFillColor=default;" parent="1" vertex="1">
                    <mxGeometry x="310" y="50" width="180" height="360" as="geometry"/>
                </mxCell>
                <mxCell id="GjQhn9GalNSHdW4fiU0v-8" value="" style="shape=tableRow;horizontal=0;startSize=0;swimlaneHead=0;swimlaneBody=0;fillColor=none;collapsible=0;dropTarget=0;points=[[0,0.5],[1,0.5]];portConstraint=eastwest;top=0;left=0;right=0;bottom=1;" parent="GjQhn9GalNSHdW4fiU0v-7" vertex="1">
                    <mxGeometry y="30" width="180" height="30" as="geometry"/>
                </mxCell>
                <mxCell id="GjQhn9GalNSHdW4fiU0v-9" value="PK" style="shape=partialRectangle;connectable=0;fillColor=none;top=0;left=0;bottom=0;right=0;fontStyle=1;overflow=hidden;" parent="GjQhn9GalNSHdW4fiU0v-8" vertex="1">
                    <mxGeometry width="30" height="30" as="geometry">
                        <mxRectangle width="30" height="30" as="alternateBounds"/>
                    </mxGeometry>
                </mxCell>
                <mxCell id="GjQhn9GalNSHdW4fiU0v-10" value="회원 아이디" style="shape=partialRectangle;connectable=0;fillColor=none;top=0;left=0;bottom=0;right=0;align=left;spacingLeft=6;fontStyle=5;overflow=hidden;" parent="GjQhn9GalNSHdW4fiU0v-8" vertex="1">
                    <mxGeometry x="30" width="150" height="30" as="geometry">
                        <mxRectangle width="150" height="30" as="alternateBounds"/>
                    </mxGeometry>
                </mxCell>
                <mxCell id="GjQhn9GalNSHdW4fiU0v-11" value="" style="shape=tableRow;horizontal=0;startSize=0;swimlaneHead=0;swimlaneBody=0;fillColor=none;collapsible=0;dropTarget=0;points=[[0,0.5],[1,0.5]];portConstraint=eastwest;top=0;left=0;right=0;bottom=0;" parent="GjQhn9GalNSHdW4fiU0v-7" vertex="1">
                    <mxGeometry y="60" width="180" height="30" as="geometry"/>
                </mxCell>
                <mxCell id="GjQhn9GalNSHdW4fiU0v-12" value="" style="shape=partialRectangle;connectable=0;fillColor=none;top=0;left=0;bottom=0;right=0;editable=1;overflow=hidden;" parent="GjQhn9GalNSHdW4fiU0v-11" vertex="1">
                    <mxGeometry width="30" height="30" as="geometry">
                        <mxRectangle width="30" height="30" as="alternateBounds"/>
                    </mxGeometry>
                </mxCell>
                <mxCell id="GjQhn9GalNSHdW4fiU0v-13" value="비밀번호" style="shape=partialRectangle;connectable=0;fillColor=none;top=0;left=0;bottom=0;right=0;align=left;spacingLeft=6;overflow=hidden;" parent="GjQhn9GalNSHdW4fiU0v-11" vertex="1">
                    <mxGeometry x="30" width="150" height="30" as="geometry">
                        <mxRectangle width="150" height="30" as="alternateBounds"/>
                    </mxGeometry>
                </mxCell>
                <mxCell id="GjQhn9GalNSHdW4fiU0v-14" value="" style="shape=tableRow;horizontal=0;startSize=0;swimlaneHead=0;swimlaneBody=0;fillColor=none;collapsible=0;dropTarget=0;points=[[0,0.5],[1,0.5]];portConstraint=eastwest;top=0;left=0;right=0;bottom=0;" parent="GjQhn9GalNSHdW4fiU0v-7" vertex="1">
                    <mxGeometry y="90" width="180" height="30" as="geometry"/>
                </mxCell>
                <mxCell id="GjQhn9GalNSHdW4fiU0v-15" value="" style="shape=partialRectangle;connectable=0;fillColor=none;top=0;left=0;bottom=0;right=0;editable=1;overflow=hidden;" parent="GjQhn9GalNSHdW4fiU0v-14" vertex="1">
                    <mxGeometry width="30" height="30" as="geometry">
                        <mxRectangle width="30" height="30" as="alternateBounds"/>
                    </mxGeometry>
                </mxCell>
                <mxCell id="GjQhn9GalNSHdW4fiU0v-16" value="이름" style="shape=partialRectangle;connectable=0;fillColor=none;top=0;left=0;bottom=0;right=0;align=left;spacingLeft=6;overflow=hidden;" parent="GjQhn9GalNSHdW4fiU0v-14" vertex="1">
                    <mxGeometry x="30" width="150" height="30" as="geometry">
                        <mxRectangle width="150" height="30" as="alternateBounds"/>
                    </mxGeometry>
                </mxCell>
                <mxCell id="GjQhn9GalNSHdW4fiU0v-17" value="" style="shape=tableRow;horizontal=0;startSize=0;swimlaneHead=0;swimlaneBody=0;fillColor=none;collapsible=0;dropTarget=0;points=[[0,0.5],[1,0.5]];portConstraint=eastwest;top=0;left=0;right=0;bottom=0;" parent="GjQhn9GalNSHdW4fiU0v-7" vertex="1">
                    <mxGeometry y="120" width="180" height="30" as="geometry"/>
                </mxCell>
                <mxCell id="GjQhn9GalNSHdW4fiU0v-18" value="" style="shape=partialRectangle;connectable=0;fillColor=none;top=0;left=0;bottom=0;right=0;editable=1;overflow=hidden;" parent="GjQhn9GalNSHdW4fiU0v-17" vertex="1">
                    <mxGeometry width="30" height="30" as="geometry">
                        <mxRectangle width="30" height="30" as="alternateBounds"/>
                    </mxGeometry>
                </mxCell>
                <mxCell id="GjQhn9GalNSHdW4fiU0v-19" value="전화번호" style="shape=partialRectangle;connectable=0;fillColor=none;top=0;left=0;bottom=0;right=0;align=left;spacingLeft=6;overflow=hidden;" parent="GjQhn9GalNSHdW4fiU0v-17" vertex="1">
                    <mxGeometry x="30" width="150" height="30" as="geometry">
                        <mxRectangle width="150" height="30" as="alternateBounds"/>
                    </mxGeometry>
                </mxCell>
                <mxCell id="GjQhn9GalNSHdW4fiU0v-20" value="" style="shape=tableRow;horizontal=0;startSize=0;swimlaneHead=0;swimlaneBody=0;fillColor=none;collapsible=0;dropTarget=0;points=[[0,0.5],[1,0.5]];portConstraint=eastwest;top=0;left=0;right=0;bottom=0;" parent="GjQhn9GalNSHdW4fiU0v-7" vertex="1">
                    <mxGeometry y="150" width="180" height="30" as="geometry"/>
                </mxCell>
                <mxCell id="GjQhn9GalNSHdW4fiU0v-21" value="" style="shape=partialRectangle;connectable=0;fillColor=none;top=0;left=0;bottom=0;right=0;editable=1;overflow=hidden;" parent="GjQhn9GalNSHdW4fiU0v-20" vertex="1">
                    <mxGeometry width="30" height="30" as="geometry">
                        <mxRectangle width="30" height="30" as="alternateBounds"/>
                    </mxGeometry>
                </mxCell>
                <mxCell id="GjQhn9GalNSHdW4fiU0v-22" value="성별" style="shape=partialRectangle;connectable=0;fillColor=none;top=0;left=0;bottom=0;right=0;align=left;spacingLeft=6;overflow=hidden;" parent="GjQhn9GalNSHdW4fiU0v-20" vertex="1">
                    <mxGeometry x="30" width="150" height="30" as="geometry">
                        <mxRectangle width="150" height="30" as="alternateBounds"/>
                    </mxGeometry>
                </mxCell>
                <mxCell id="GjQhn9GalNSHdW4fiU0v-23" value="" style="shape=tableRow;horizontal=0;startSize=0;swimlaneHead=0;swimlaneBody=0;fillColor=none;collapsible=0;dropTarget=0;points=[[0,0.5],[1,0.5]];portConstraint=eastwest;top=0;left=0;right=0;bottom=0;" parent="GjQhn9GalNSHdW4fiU0v-7" vertex="1">
                    <mxGeometry y="180" width="180" height="30" as="geometry"/>
                </mxCell>
                <mxCell id="GjQhn9GalNSHdW4fiU0v-24" value="" style="shape=partialRectangle;connectable=0;fillColor=none;top=0;left=0;bottom=0;right=0;editable=1;overflow=hidden;" parent="GjQhn9GalNSHdW4fiU0v-23" vertex="1">
                    <mxGeometry width="30" height="30" as="geometry">
                        <mxRectangle width="30" height="30" as="alternateBounds"/>
                    </mxGeometry>
                </mxCell>
                <mxCell id="GjQhn9GalNSHdW4fiU0v-25" value="나이" style="shape=partialRectangle;connectable=0;fillColor=none;top=0;left=0;bottom=0;right=0;align=left;spacingLeft=6;overflow=hidden;" parent="GjQhn9GalNSHdW4fiU0v-23" vertex="1">
                    <mxGeometry x="30" width="150" height="30" as="geometry">
                        <mxRectangle width="150" height="30" as="alternateBounds"/>
                    </mxGeometry>
                </mxCell>
                <mxCell id="GjQhn9GalNSHdW4fiU0v-26" value="" style="shape=tableRow;horizontal=0;startSize=0;swimlaneHead=0;swimlaneBody=0;fillColor=none;collapsible=0;dropTarget=0;points=[[0,0.5],[1,0.5]];portConstraint=eastwest;top=0;left=0;right=0;bottom=0;" parent="GjQhn9GalNSHdW4fiU0v-7" vertex="1">
                    <mxGeometry y="210" width="180" height="30" as="geometry"/>
                </mxCell>
                <mxCell id="GjQhn9GalNSHdW4fiU0v-27" value="" style="shape=partialRectangle;connectable=0;fillColor=none;top=0;left=0;bottom=0;right=0;editable=1;overflow=hidden;" parent="GjQhn9GalNSHdW4fiU0v-26" vertex="1">
                    <mxGeometry width="30" height="30" as="geometry">
                        <mxRectangle width="30" height="30" as="alternateBounds"/>
                    </mxGeometry>
                </mxCell>
                <mxCell id="GjQhn9GalNSHdW4fiU0v-28" value="이메일" style="shape=partialRectangle;connectable=0;fillColor=none;top=0;left=0;bottom=0;right=0;align=left;spacingLeft=6;overflow=hidden;" parent="GjQhn9GalNSHdW4fiU0v-26" vertex="1">
                    <mxGeometry x="30" width="150" height="30" as="geometry">
                        <mxRectangle width="150" height="30" as="alternateBounds"/>
                    </mxGeometry>
                </mxCell>
                <mxCell id="GjQhn9GalNSHdW4fiU0v-29" value="" style="shape=tableRow;horizontal=0;startSize=0;swimlaneHead=0;swimlaneBody=0;fillColor=none;collapsible=0;dropTarget=0;points=[[0,0.5],[1,0.5]];portConstraint=eastwest;top=0;left=0;right=0;bottom=0;" parent="GjQhn9GalNSHdW4fiU0v-7" vertex="1">
                    <mxGeometry y="240" width="180" height="30" as="geometry"/>
                </mxCell>
                <mxCell id="GjQhn9GalNSHdW4fiU0v-30" value="" style="shape=partialRectangle;connectable=0;fillColor=none;top=0;left=0;bottom=0;right=0;editable=1;overflow=hidden;" parent="GjQhn9GalNSHdW4fiU0v-29" vertex="1">
                    <mxGeometry width="30" height="30" as="geometry">
                        <mxRectangle width="30" height="30" as="alternateBounds"/>
                    </mxGeometry>
                </mxCell>
                <mxCell id="GjQhn9GalNSHdW4fiU0v-31" value="리스트" style="shape=partialRectangle;connectable=0;fillColor=none;top=0;left=0;bottom=0;right=0;align=left;spacingLeft=6;overflow=hidden;" parent="GjQhn9GalNSHdW4fiU0v-29" vertex="1">
                    <mxGeometry x="30" width="150" height="30" as="geometry">
                        <mxRectangle width="150" height="30" as="alternateBounds"/>
                    </mxGeometry>
                </mxCell>
                <mxCell id="GjQhn9GalNSHdW4fiU0v-32" value="" style="shape=tableRow;horizontal=0;startSize=0;swimlaneHead=0;swimlaneBody=0;fillColor=none;collapsible=0;dropTarget=0;points=[[0,0.5],[1,0.5]];portConstraint=eastwest;top=0;left=0;right=0;bottom=0;" parent="GjQhn9GalNSHdW4fiU0v-7" vertex="1">
                    <mxGeometry y="270" width="180" height="30" as="geometry"/>
                </mxCell>
                <mxCell id="GjQhn9GalNSHdW4fiU0v-33" value="" style="shape=partialRectangle;connectable=0;fillColor=none;top=0;left=0;bottom=0;right=0;editable=1;overflow=hidden;" parent="GjQhn9GalNSHdW4fiU0v-32" vertex="1">
                    <mxGeometry width="30" height="30" as="geometry">
                        <mxRectangle width="30" height="30" as="alternateBounds"/>
                    </mxGeometry>
                </mxCell>
                <mxCell id="GjQhn9GalNSHdW4fiU0v-34" value="포인트" style="shape=partialRectangle;connectable=0;fillColor=none;top=0;left=0;bottom=0;right=0;align=left;spacingLeft=6;overflow=hidden;" parent="GjQhn9GalNSHdW4fiU0v-32" vertex="1">
                    <mxGeometry x="30" width="150" height="30" as="geometry">
                        <mxRectangle width="150" height="30" as="alternateBounds"/>
                    </mxGeometry>
                </mxCell>
                <mxCell id="GjQhn9GalNSHdW4fiU0v-35" value="" style="shape=tableRow;horizontal=0;startSize=0;swimlaneHead=0;swimlaneBody=0;fillColor=none;collapsible=0;dropTarget=0;points=[[0,0.5],[1,0.5]];portConstraint=eastwest;top=0;left=0;right=0;bottom=0;" parent="GjQhn9GalNSHdW4fiU0v-7" vertex="1">
                    <mxGeometry y="300" width="180" height="30" as="geometry"/>
                </mxCell>
                <mxCell id="GjQhn9GalNSHdW4fiU0v-36" value="" style="shape=partialRectangle;connectable=0;fillColor=none;top=0;left=0;bottom=0;right=0;editable=1;overflow=hidden;" parent="GjQhn9GalNSHdW4fiU0v-35" vertex="1">
                    <mxGeometry width="30" height="30" as="geometry">
                        <mxRectangle width="30" height="30" as="alternateBounds"/>
                    </mxGeometry>
                </mxCell>
                <mxCell id="GjQhn9GalNSHdW4fiU0v-37" value="애매내역" style="shape=partialRectangle;connectable=0;fillColor=none;top=0;left=0;bottom=0;right=0;align=left;spacingLeft=6;overflow=hidden;" parent="GjQhn9GalNSHdW4fiU0v-35" vertex="1">
                    <mxGeometry x="30" width="150" height="30" as="geometry">
                        <mxRectangle width="150" height="30" as="alternateBounds"/>
                    </mxGeometry>
                </mxCell>
                <mxCell id="GjQhn9GalNSHdW4fiU0v-101" value="" style="shape=tableRow;horizontal=0;startSize=0;swimlaneHead=0;swimlaneBody=0;fillColor=none;collapsible=0;dropTarget=0;points=[[0,0.5],[1,0.5]];portConstraint=eastwest;top=0;left=0;right=0;bottom=0;" parent="GjQhn9GalNSHdW4fiU0v-7" vertex="1">
                    <mxGeometry y="330" width="180" height="30" as="geometry"/>
                </mxCell>
                <mxCell id="GjQhn9GalNSHdW4fiU0v-102" value="" style="shape=partialRectangle;connectable=0;fillColor=none;top=0;left=0;bottom=0;right=0;editable=1;overflow=hidden;" parent="GjQhn9GalNSHdW4fiU0v-101" vertex="1">
                    <mxGeometry width="30" height="30" as="geometry">
                        <mxRectangle width="30" height="30" as="alternateBounds"/>
                    </mxGeometry>
                </mxCell>
                <mxCell id="GjQhn9GalNSHdW4fiU0v-103" value="주소" style="shape=partialRectangle;connectable=0;fillColor=none;top=0;left=0;bottom=0;right=0;align=left;spacingLeft=6;overflow=hidden;" parent="GjQhn9GalNSHdW4fiU0v-101" vertex="1">
                    <mxGeometry x="30" width="150" height="30" as="geometry">
                        <mxRectangle width="150" height="30" as="alternateBounds"/>
                    </mxGeometry>
                </mxCell>
                <mxCell id="GjQhn9GalNSHdW4fiU0v-39" value="영화" style="shape=table;startSize=30;container=1;collapsible=1;childLayout=tableLayout;fixedRows=1;rowLines=0;fontStyle=1;align=center;resizeLast=1;fillColor=default;fontColor=#333333;strokeColor=#666666;gradientColor=none;swimlaneFillColor=default;" parent="1" vertex="1">
                    <mxGeometry x="30" y="230" width="180" height="390" as="geometry"/>
                </mxCell>
                <mxCell id="GjQhn9GalNSHdW4fiU0v-199" value="" style="shape=tableRow;horizontal=0;startSize=0;swimlaneHead=0;swimlaneBody=0;fillColor=none;collapsible=0;dropTarget=0;points=[[0,0.5],[1,0.5]];portConstraint=eastwest;top=0;left=0;right=0;bottom=1;" parent="GjQhn9GalNSHdW4fiU0v-39" vertex="1">
                    <mxGeometry y="30" width="180" height="30" as="geometry"/>
                </mxCell>
                <mxCell id="GjQhn9GalNSHdW4fiU0v-200" value="PK" style="shape=partialRectangle;connectable=0;fillColor=none;top=0;left=0;bottom=0;right=0;fontStyle=1;overflow=hidden;" parent="GjQhn9GalNSHdW4fiU0v-199" vertex="1">
                    <mxGeometry width="30" height="30" as="geometry">
                        <mxRectangle width="30" height="30" as="alternateBounds"/>
                    </mxGeometry>
                </mxCell>
                <mxCell id="GjQhn9GalNSHdW4fiU0v-201" value="등록번호" style="shape=partialRectangle;connectable=0;fillColor=none;top=0;left=0;bottom=0;right=0;align=left;spacingLeft=6;fontStyle=5;overflow=hidden;" parent="GjQhn9GalNSHdW4fiU0v-199" vertex="1">
                    <mxGeometry x="30" width="150" height="30" as="geometry">
                        <mxRectangle width="150" height="30" as="alternateBounds"/>
                    </mxGeometry>
                </mxCell>
                <mxCell id="GjQhn9GalNSHdW4fiU0v-40" value="" style="shape=tableRow;horizontal=0;startSize=0;swimlaneHead=0;swimlaneBody=0;fillColor=none;collapsible=0;dropTarget=0;points=[[0,0.5],[1,0.5]];portConstraint=eastwest;top=0;left=0;right=0;bottom=1;" parent="GjQhn9GalNSHdW4fiU0v-39" vertex="1">
                    <mxGeometry y="60" width="180" height="30" as="geometry"/>
                </mxCell>
                <mxCell id="GjQhn9GalNSHdW4fiU0v-41" value="FK" style="shape=partialRectangle;connectable=0;fillColor=none;top=0;left=0;bottom=0;right=0;fontStyle=1;overflow=hidden;" parent="GjQhn9GalNSHdW4fiU0v-40" vertex="1">
                    <mxGeometry width="30" height="30" as="geometry">
                        <mxRectangle width="30" height="30" as="alternateBounds"/>
                    </mxGeometry>
                </mxCell>
                <mxCell id="GjQhn9GalNSHdW4fiU0v-42" value="회원 아이디" style="shape=partialRectangle;connectable=0;fillColor=none;top=0;left=0;bottom=0;right=0;align=left;spacingLeft=6;fontStyle=5;overflow=hidden;" parent="GjQhn9GalNSHdW4fiU0v-40" vertex="1">
                    <mxGeometry x="30" width="150" height="30" as="geometry">
                        <mxRectangle width="150" height="30" as="alternateBounds"/>
                    </mxGeometry>
                </mxCell>
                <mxCell id="GjQhn9GalNSHdW4fiU0v-223" value="" style="shape=tableRow;horizontal=0;startSize=0;swimlaneHead=0;swimlaneBody=0;fillColor=none;collapsible=0;dropTarget=0;points=[[0,0.5],[1,0.5]];portConstraint=eastwest;top=0;left=0;right=0;bottom=1;" parent="GjQhn9GalNSHdW4fiU0v-39" vertex="1">
                    <mxGeometry y="90" width="180" height="30" as="geometry"/>
                </mxCell>
                <mxCell id="GjQhn9GalNSHdW4fiU0v-224" value="FK" style="shape=partialRectangle;connectable=0;fillColor=none;top=0;left=0;bottom=0;right=0;fontStyle=1;overflow=hidden;" parent="GjQhn9GalNSHdW4fiU0v-223" vertex="1">
                    <mxGeometry width="30" height="30" as="geometry">
                        <mxRectangle width="30" height="30" as="alternateBounds"/>
                    </mxGeometry>
                </mxCell>
                <mxCell id="GjQhn9GalNSHdW4fiU0v-225" value="관리자 아이디" style="shape=partialRectangle;connectable=0;fillColor=none;top=0;left=0;bottom=0;right=0;align=left;spacingLeft=6;fontStyle=5;overflow=hidden;" parent="GjQhn9GalNSHdW4fiU0v-223" vertex="1">
                    <mxGeometry x="30" width="150" height="30" as="geometry">
                        <mxRectangle width="150" height="30" as="alternateBounds"/>
                    </mxGeometry>
                </mxCell>
                <mxCell id="GjQhn9GalNSHdW4fiU0v-43" value="" style="shape=tableRow;horizontal=0;startSize=0;swimlaneHead=0;swimlaneBody=0;fillColor=none;collapsible=0;dropTarget=0;points=[[0,0.5],[1,0.5]];portConstraint=eastwest;top=0;left=0;right=0;bottom=0;" parent="GjQhn9GalNSHdW4fiU0v-39" vertex="1">
                    <mxGeometry y="120" width="180" height="30" as="geometry"/>
                </mxCell>
                <mxCell id="GjQhn9GalNSHdW4fiU0v-44" value="" style="shape=partialRectangle;connectable=0;fillColor=none;top=0;left=0;bottom=0;right=0;editable=1;overflow=hidden;" parent="GjQhn9GalNSHdW4fiU0v-43" vertex="1">
                    <mxGeometry width="30" height="30" as="geometry">
                        <mxRectangle width="30" height="30" as="alternateBounds"/>
                    </mxGeometry>
                </mxCell>
                <mxCell id="GjQhn9GalNSHdW4fiU0v-45" value="제목" style="shape=partialRectangle;connectable=0;fillColor=none;top=0;left=0;bottom=0;right=0;align=left;spacingLeft=6;overflow=hidden;" parent="GjQhn9GalNSHdW4fiU0v-43" vertex="1">
                    <mxGeometry x="30" width="150" height="30" as="geometry">
                        <mxRectangle width="150" height="30" as="alternateBounds"/>
                    </mxGeometry>
                </mxCell>
                <mxCell id="GjQhn9GalNSHdW4fiU0v-46" value="" style="shape=tableRow;horizontal=0;startSize=0;swimlaneHead=0;swimlaneBody=0;fillColor=none;collapsible=0;dropTarget=0;points=[[0,0.5],[1,0.5]];portConstraint=eastwest;top=0;left=0;right=0;bottom=0;" parent="GjQhn9GalNSHdW4fiU0v-39" vertex="1">
                    <mxGeometry y="150" width="180" height="30" as="geometry"/>
                </mxCell>
                <mxCell id="GjQhn9GalNSHdW4fiU0v-47" value="" style="shape=partialRectangle;connectable=0;fillColor=none;top=0;left=0;bottom=0;right=0;editable=1;overflow=hidden;" parent="GjQhn9GalNSHdW4fiU0v-46" vertex="1">
                    <mxGeometry width="30" height="30" as="geometry">
                        <mxRectangle width="30" height="30" as="alternateBounds"/>
                    </mxGeometry>
                </mxCell>
                <mxCell id="GjQhn9GalNSHdW4fiU0v-48" value="장르" style="shape=partialRectangle;connectable=0;fillColor=none;top=0;left=0;bottom=0;right=0;align=left;spacingLeft=6;overflow=hidden;" parent="GjQhn9GalNSHdW4fiU0v-46" vertex="1">
                    <mxGeometry x="30" width="150" height="30" as="geometry">
                        <mxRectangle width="150" height="30" as="alternateBounds"/>
                    </mxGeometry>
                </mxCell>
                <mxCell id="GjQhn9GalNSHdW4fiU0v-49" value="" style="shape=tableRow;horizontal=0;startSize=0;swimlaneHead=0;swimlaneBody=0;fillColor=none;collapsible=0;dropTarget=0;points=[[0,0.5],[1,0.5]];portConstraint=eastwest;top=0;left=0;right=0;bottom=0;" parent="GjQhn9GalNSHdW4fiU0v-39" vertex="1">
                    <mxGeometry y="180" width="180" height="30" as="geometry"/>
                </mxCell>
                <mxCell id="GjQhn9GalNSHdW4fiU0v-50" value="" style="shape=partialRectangle;connectable=0;fillColor=none;top=0;left=0;bottom=0;right=0;editable=1;overflow=hidden;" parent="GjQhn9GalNSHdW4fiU0v-49" vertex="1">
                    <mxGeometry width="30" height="30" as="geometry">
                        <mxRectangle width="30" height="30" as="alternateBounds"/>
                    </mxGeometry>
                </mxCell>
                <mxCell id="GjQhn9GalNSHdW4fiU0v-51" value="배우" style="shape=partialRectangle;connectable=0;fillColor=none;top=0;left=0;bottom=0;right=0;align=left;spacingLeft=6;overflow=hidden;" parent="GjQhn9GalNSHdW4fiU0v-49" vertex="1">
                    <mxGeometry x="30" width="150" height="30" as="geometry">
                        <mxRectangle width="150" height="30" as="alternateBounds"/>
                    </mxGeometry>
                </mxCell>
                <mxCell id="GjQhn9GalNSHdW4fiU0v-52" value="" style="shape=tableRow;horizontal=0;startSize=0;swimlaneHead=0;swimlaneBody=0;fillColor=none;collapsible=0;dropTarget=0;points=[[0,0.5],[1,0.5]];portConstraint=eastwest;top=0;left=0;right=0;bottom=0;" parent="GjQhn9GalNSHdW4fiU0v-39" vertex="1">
                    <mxGeometry y="210" width="180" height="30" as="geometry"/>
                </mxCell>
                <mxCell id="GjQhn9GalNSHdW4fiU0v-53" value="" style="shape=partialRectangle;connectable=0;fillColor=none;top=0;left=0;bottom=0;right=0;editable=1;overflow=hidden;" parent="GjQhn9GalNSHdW4fiU0v-52" vertex="1">
                    <mxGeometry width="30" height="30" as="geometry">
                        <mxRectangle width="30" height="30" as="alternateBounds"/>
                    </mxGeometry>
                </mxCell>
                <mxCell id="GjQhn9GalNSHdW4fiU0v-54" value="감독" style="shape=partialRectangle;connectable=0;fillColor=none;top=0;left=0;bottom=0;right=0;align=left;spacingLeft=6;overflow=hidden;" parent="GjQhn9GalNSHdW4fiU0v-52" vertex="1">
                    <mxGeometry x="30" width="150" height="30" as="geometry">
                        <mxRectangle width="150" height="30" as="alternateBounds"/>
                    </mxGeometry>
                </mxCell>
                <mxCell id="GjQhn9GalNSHdW4fiU0v-55" value="" style="shape=tableRow;horizontal=0;startSize=0;swimlaneHead=0;swimlaneBody=0;fillColor=none;collapsible=0;dropTarget=0;points=[[0,0.5],[1,0.5]];portConstraint=eastwest;top=0;left=0;right=0;bottom=0;" parent="GjQhn9GalNSHdW4fiU0v-39" vertex="1">
                    <mxGeometry y="240" width="180" height="30" as="geometry"/>
                </mxCell>
                <mxCell id="GjQhn9GalNSHdW4fiU0v-56" value="" style="shape=partialRectangle;connectable=0;fillColor=none;top=0;left=0;bottom=0;right=0;editable=1;overflow=hidden;" parent="GjQhn9GalNSHdW4fiU0v-55" vertex="1">
                    <mxGeometry width="30" height="30" as="geometry">
                        <mxRectangle width="30" height="30" as="alternateBounds"/>
                    </mxGeometry>
                </mxCell>
                <mxCell id="GjQhn9GalNSHdW4fiU0v-57" value="등급" style="shape=partialRectangle;connectable=0;fillColor=none;top=0;left=0;bottom=0;right=0;align=left;spacingLeft=6;overflow=hidden;" parent="GjQhn9GalNSHdW4fiU0v-55" vertex="1">
                    <mxGeometry x="30" width="150" height="30" as="geometry">
                        <mxRectangle width="150" height="30" as="alternateBounds"/>
                    </mxGeometry>
                </mxCell>
                <mxCell id="GjQhn9GalNSHdW4fiU0v-58" value="" style="shape=tableRow;horizontal=0;startSize=0;swimlaneHead=0;swimlaneBody=0;fillColor=none;collapsible=0;dropTarget=0;points=[[0,0.5],[1,0.5]];portConstraint=eastwest;top=0;left=0;right=0;bottom=0;" parent="GjQhn9GalNSHdW4fiU0v-39" vertex="1">
                    <mxGeometry y="270" width="180" height="30" as="geometry"/>
                </mxCell>
                <mxCell id="GjQhn9GalNSHdW4fiU0v-59" value="" style="shape=partialRectangle;connectable=0;fillColor=none;top=0;left=0;bottom=0;right=0;editable=1;overflow=hidden;" parent="GjQhn9GalNSHdW4fiU0v-58" vertex="1">
                    <mxGeometry width="30" height="30" as="geometry">
                        <mxRectangle width="30" height="30" as="alternateBounds"/>
                    </mxGeometry>
                </mxCell>
                <mxCell id="GjQhn9GalNSHdW4fiU0v-60" value="나라" style="shape=partialRectangle;connectable=0;fillColor=none;top=0;left=0;bottom=0;right=0;align=left;spacingLeft=6;overflow=hidden;" parent="GjQhn9GalNSHdW4fiU0v-58" vertex="1">
                    <mxGeometry x="30" width="150" height="30" as="geometry">
                        <mxRectangle width="150" height="30" as="alternateBounds"/>
                    </mxGeometry>
                </mxCell>
                <mxCell id="GjQhn9GalNSHdW4fiU0v-61" value="" style="shape=tableRow;horizontal=0;startSize=0;swimlaneHead=0;swimlaneBody=0;fillColor=none;collapsible=0;dropTarget=0;points=[[0,0.5],[1,0.5]];portConstraint=eastwest;top=0;left=0;right=0;bottom=0;" parent="GjQhn9GalNSHdW4fiU0v-39" vertex="1">
                    <mxGeometry y="300" width="180" height="30" as="geometry"/>
                </mxCell>
                <mxCell id="GjQhn9GalNSHdW4fiU0v-62" value="" style="shape=partialRectangle;connectable=0;fillColor=none;top=0;left=0;bottom=0;right=0;editable=1;overflow=hidden;" parent="GjQhn9GalNSHdW4fiU0v-61" vertex="1">
                    <mxGeometry width="30" height="30" as="geometry">
                        <mxRectangle width="30" height="30" as="alternateBounds"/>
                    </mxGeometry>
                </mxCell>
                <mxCell id="GjQhn9GalNSHdW4fiU0v-63" value="개봉일" style="shape=partialRectangle;connectable=0;fillColor=none;top=0;left=0;bottom=0;right=0;align=left;spacingLeft=6;overflow=hidden;" parent="GjQhn9GalNSHdW4fiU0v-61" vertex="1">
                    <mxGeometry x="30" width="150" height="30" as="geometry">
                        <mxRectangle width="150" height="30" as="alternateBounds"/>
                    </mxGeometry>
                </mxCell>
                <mxCell id="GjQhn9GalNSHdW4fiU0v-64" value="" style="shape=tableRow;horizontal=0;startSize=0;swimlaneHead=0;swimlaneBody=0;fillColor=none;collapsible=0;dropTarget=0;points=[[0,0.5],[1,0.5]];portConstraint=eastwest;top=0;left=0;right=0;bottom=0;" parent="GjQhn9GalNSHdW4fiU0v-39" vertex="1">
                    <mxGeometry y="330" width="180" height="30" as="geometry"/>
                </mxCell>
                <mxCell id="GjQhn9GalNSHdW4fiU0v-65" value="" style="shape=partialRectangle;connectable=0;fillColor=none;top=0;left=0;bottom=0;right=0;editable=1;overflow=hidden;" parent="GjQhn9GalNSHdW4fiU0v-64" vertex="1">
                    <mxGeometry width="30" height="30" as="geometry">
                        <mxRectangle width="30" height="30" as="alternateBounds"/>
                    </mxGeometry>
                </mxCell>
                <mxCell id="GjQhn9GalNSHdW4fiU0v-66" value="영화포스터" style="shape=partialRectangle;connectable=0;fillColor=none;top=0;left=0;bottom=0;right=0;align=left;spacingLeft=6;overflow=hidden;" parent="GjQhn9GalNSHdW4fiU0v-64" vertex="1">
                    <mxGeometry x="30" width="150" height="30" as="geometry">
                        <mxRectangle width="150" height="30" as="alternateBounds"/>
                    </mxGeometry>
                </mxCell>
                <mxCell id="GjQhn9GalNSHdW4fiU0v-67" value="" style="shape=tableRow;horizontal=0;startSize=0;swimlaneHead=0;swimlaneBody=0;fillColor=none;collapsible=0;dropTarget=0;points=[[0,0.5],[1,0.5]];portConstraint=eastwest;top=0;left=0;right=0;bottom=0;" parent="GjQhn9GalNSHdW4fiU0v-39" vertex="1">
                    <mxGeometry y="360" width="180" height="30" as="geometry"/>
                </mxCell>
                <mxCell id="GjQhn9GalNSHdW4fiU0v-68" value="" style="shape=partialRectangle;connectable=0;fillColor=none;top=0;left=0;bottom=0;right=0;editable=1;overflow=hidden;" parent="GjQhn9GalNSHdW4fiU0v-67" vertex="1">
                    <mxGeometry width="30" height="30" as="geometry">
                        <mxRectangle width="30" height="30" as="alternateBounds"/>
                    </mxGeometry>
                </mxCell>
                <mxCell id="GjQhn9GalNSHdW4fiU0v-69" value="관람객수" style="shape=partialRectangle;connectable=0;fillColor=none;top=0;left=0;bottom=0;right=0;align=left;spacingLeft=6;overflow=hidden;" parent="GjQhn9GalNSHdW4fiU0v-67" vertex="1">
                    <mxGeometry x="30" width="150" height="30" as="geometry">
                        <mxRectangle width="150" height="30" as="alternateBounds"/>
                    </mxGeometry>
                </mxCell>
                <mxCell id="GjQhn9GalNSHdW4fiU0v-70" value="예매" style="shape=table;startSize=30;container=1;collapsible=1;childLayout=tableLayout;fixedRows=1;rowLines=0;fontStyle=1;align=center;resizeLast=1;fillColor=default;fontColor=#333333;strokeColor=#666666;gradientColor=none;swimlaneFillColor=default;" parent="1" vertex="1">
                    <mxGeometry x="650" y="610" width="190" height="270" as="geometry"/>
                </mxCell>
                <mxCell id="GjQhn9GalNSHdW4fiU0v-71" value="" style="shape=tableRow;horizontal=0;startSize=0;swimlaneHead=0;swimlaneBody=0;fillColor=none;collapsible=0;dropTarget=0;points=[[0,0.5],[1,0.5]];portConstraint=eastwest;top=0;left=0;right=0;bottom=1;" parent="GjQhn9GalNSHdW4fiU0v-70" vertex="1">
                    <mxGeometry y="30" width="190" height="30" as="geometry"/>
                </mxCell>
                <mxCell id="GjQhn9GalNSHdW4fiU0v-72" value="PK" style="shape=partialRectangle;connectable=0;fillColor=none;top=0;left=0;bottom=0;right=0;fontStyle=1;overflow=hidden;" parent="GjQhn9GalNSHdW4fiU0v-71" vertex="1">
                    <mxGeometry width="30" height="30" as="geometry">
                        <mxRectangle width="30" height="30" as="alternateBounds"/>
                    </mxGeometry>
                </mxCell>
                <mxCell id="GjQhn9GalNSHdW4fiU0v-73" value="예매번호" style="shape=partialRectangle;connectable=0;fillColor=none;top=0;left=0;bottom=0;right=0;align=left;spacingLeft=6;fontStyle=5;overflow=hidden;" parent="GjQhn9GalNSHdW4fiU0v-71" vertex="1">
                    <mxGeometry x="30" width="160" height="30" as="geometry">
                        <mxRectangle width="160" height="30" as="alternateBounds"/>
                    </mxGeometry>
                </mxCell>
                <mxCell id="GjQhn9GalNSHdW4fiU0v-202" value="" style="shape=tableRow;horizontal=0;startSize=0;swimlaneHead=0;swimlaneBody=0;fillColor=none;collapsible=0;dropTarget=0;points=[[0,0.5],[1,0.5]];portConstraint=eastwest;top=0;left=0;right=0;bottom=1;" parent="GjQhn9GalNSHdW4fiU0v-70" vertex="1">
                    <mxGeometry y="60" width="190" height="30" as="geometry"/>
                </mxCell>
                <mxCell id="GjQhn9GalNSHdW4fiU0v-203" value="FK" style="shape=partialRectangle;connectable=0;fillColor=none;top=0;left=0;bottom=0;right=0;fontStyle=1;overflow=hidden;" parent="GjQhn9GalNSHdW4fiU0v-202" vertex="1">
                    <mxGeometry width="30" height="30" as="geometry">
                        <mxRectangle width="30" height="30" as="alternateBounds"/>
                    </mxGeometry>
                </mxCell>
                <mxCell id="GjQhn9GalNSHdW4fiU0v-204" value="회원 아이디" style="shape=partialRectangle;connectable=0;fillColor=none;top=0;left=0;bottom=0;right=0;align=left;spacingLeft=6;fontStyle=5;overflow=hidden;" parent="GjQhn9GalNSHdW4fiU0v-202" vertex="1">
                    <mxGeometry x="30" width="160" height="30" as="geometry">
                        <mxRectangle width="160" height="30" as="alternateBounds"/>
                    </mxGeometry>
                </mxCell>
                <mxCell id="GjQhn9GalNSHdW4fiU0v-205" value="" style="shape=tableRow;horizontal=0;startSize=0;swimlaneHead=0;swimlaneBody=0;fillColor=none;collapsible=0;dropTarget=0;points=[[0,0.5],[1,0.5]];portConstraint=eastwest;top=0;left=0;right=0;bottom=1;" parent="GjQhn9GalNSHdW4fiU0v-70" vertex="1">
                    <mxGeometry y="90" width="190" height="30" as="geometry"/>
                </mxCell>
                <mxCell id="GjQhn9GalNSHdW4fiU0v-206" value="FK" style="shape=partialRectangle;connectable=0;fillColor=none;top=0;left=0;bottom=0;right=0;fontStyle=1;overflow=hidden;" parent="GjQhn9GalNSHdW4fiU0v-205" vertex="1">
                    <mxGeometry width="30" height="30" as="geometry">
                        <mxRectangle width="30" height="30" as="alternateBounds"/>
                    </mxGeometry>
                </mxCell>
                <mxCell id="GjQhn9GalNSHdW4fiU0v-207" value="등록번호" style="shape=partialRectangle;connectable=0;fillColor=none;top=0;left=0;bottom=0;right=0;align=left;spacingLeft=6;fontStyle=5;overflow=hidden;" parent="GjQhn9GalNSHdW4fiU0v-205" vertex="1">
                    <mxGeometry x="30" width="160" height="30" as="geometry">
                        <mxRectangle width="160" height="30" as="alternateBounds"/>
                    </mxGeometry>
                </mxCell>
                <mxCell id="GjQhn9GalNSHdW4fiU0v-74" value="" style="shape=tableRow;horizontal=0;startSize=0;swimlaneHead=0;swimlaneBody=0;fillColor=none;collapsible=0;dropTarget=0;points=[[0,0.5],[1,0.5]];portConstraint=eastwest;top=0;left=0;right=0;bottom=0;" parent="GjQhn9GalNSHdW4fiU0v-70" vertex="1">
                    <mxGeometry y="120" width="190" height="30" as="geometry"/>
                </mxCell>
                <mxCell id="GjQhn9GalNSHdW4fiU0v-75" value="" style="shape=partialRectangle;connectable=0;fillColor=none;top=0;left=0;bottom=0;right=0;editable=1;overflow=hidden;" parent="GjQhn9GalNSHdW4fiU0v-74" vertex="1">
                    <mxGeometry width="30" height="30" as="geometry">
                        <mxRectangle width="30" height="30" as="alternateBounds"/>
                    </mxGeometry>
                </mxCell>
                <mxCell id="GjQhn9GalNSHdW4fiU0v-76" value="상영관" style="shape=partialRectangle;connectable=0;fillColor=none;top=0;left=0;bottom=0;right=0;align=left;spacingLeft=6;overflow=hidden;" parent="GjQhn9GalNSHdW4fiU0v-74" vertex="1">
                    <mxGeometry x="30" width="160" height="30" as="geometry">
                        <mxRectangle width="160" height="30" as="alternateBounds"/>
                    </mxGeometry>
                </mxCell>
                <mxCell id="GjQhn9GalNSHdW4fiU0v-77" value="" style="shape=tableRow;horizontal=0;startSize=0;swimlaneHead=0;swimlaneBody=0;fillColor=none;collapsible=0;dropTarget=0;points=[[0,0.5],[1,0.5]];portConstraint=eastwest;top=0;left=0;right=0;bottom=0;" parent="GjQhn9GalNSHdW4fiU0v-70" vertex="1">
                    <mxGeometry y="150" width="190" height="30" as="geometry"/>
                </mxCell>
                <mxCell id="GjQhn9GalNSHdW4fiU0v-78" value="" style="shape=partialRectangle;connectable=0;fillColor=none;top=0;left=0;bottom=0;right=0;editable=1;overflow=hidden;" parent="GjQhn9GalNSHdW4fiU0v-77" vertex="1">
                    <mxGeometry width="30" height="30" as="geometry">
                        <mxRectangle width="30" height="30" as="alternateBounds"/>
                    </mxGeometry>
                </mxCell>
                <mxCell id="GjQhn9GalNSHdW4fiU0v-79" value="금액" style="shape=partialRectangle;connectable=0;fillColor=none;top=0;left=0;bottom=0;right=0;align=left;spacingLeft=6;overflow=hidden;" parent="GjQhn9GalNSHdW4fiU0v-77" vertex="1">
                    <mxGeometry x="30" width="160" height="30" as="geometry">
                        <mxRectangle width="160" height="30" as="alternateBounds"/>
                    </mxGeometry>
                </mxCell>
                <mxCell id="GjQhn9GalNSHdW4fiU0v-80" value="" style="shape=tableRow;horizontal=0;startSize=0;swimlaneHead=0;swimlaneBody=0;fillColor=none;collapsible=0;dropTarget=0;points=[[0,0.5],[1,0.5]];portConstraint=eastwest;top=0;left=0;right=0;bottom=0;" parent="GjQhn9GalNSHdW4fiU0v-70" vertex="1">
                    <mxGeometry y="180" width="190" height="30" as="geometry"/>
                </mxCell>
                <mxCell id="GjQhn9GalNSHdW4fiU0v-81" value="" style="shape=partialRectangle;connectable=0;fillColor=none;top=0;left=0;bottom=0;right=0;editable=1;overflow=hidden;" parent="GjQhn9GalNSHdW4fiU0v-80" vertex="1">
                    <mxGeometry width="30" height="30" as="geometry">
                        <mxRectangle width="30" height="30" as="alternateBounds"/>
                    </mxGeometry>
                </mxCell>
                <mxCell id="GjQhn9GalNSHdW4fiU0v-82" value="좌석" style="shape=partialRectangle;connectable=0;fillColor=none;top=0;left=0;bottom=0;right=0;align=left;spacingLeft=6;overflow=hidden;" parent="GjQhn9GalNSHdW4fiU0v-80" vertex="1">
                    <mxGeometry x="30" width="160" height="30" as="geometry">
                        <mxRectangle width="160" height="30" as="alternateBounds"/>
                    </mxGeometry>
                </mxCell>
                <mxCell id="GjQhn9GalNSHdW4fiU0v-83" value="" style="shape=tableRow;horizontal=0;startSize=0;swimlaneHead=0;swimlaneBody=0;fillColor=none;collapsible=0;dropTarget=0;points=[[0,0.5],[1,0.5]];portConstraint=eastwest;top=0;left=0;right=0;bottom=0;" parent="GjQhn9GalNSHdW4fiU0v-70" vertex="1">
                    <mxGeometry y="210" width="190" height="30" as="geometry"/>
                </mxCell>
                <mxCell id="GjQhn9GalNSHdW4fiU0v-84" value="" style="shape=partialRectangle;connectable=0;fillColor=none;top=0;left=0;bottom=0;right=0;editable=1;overflow=hidden;" parent="GjQhn9GalNSHdW4fiU0v-83" vertex="1">
                    <mxGeometry width="30" height="30" as="geometry">
                        <mxRectangle width="30" height="30" as="alternateBounds"/>
                    </mxGeometry>
                </mxCell>
                <mxCell id="GjQhn9GalNSHdW4fiU0v-85" value="결제상태" style="shape=partialRectangle;connectable=0;fillColor=none;top=0;left=0;bottom=0;right=0;align=left;spacingLeft=6;overflow=hidden;" parent="GjQhn9GalNSHdW4fiU0v-83" vertex="1">
                    <mxGeometry x="30" width="160" height="30" as="geometry">
                        <mxRectangle width="160" height="30" as="alternateBounds"/>
                    </mxGeometry>
                </mxCell>
                <mxCell id="GjQhn9GalNSHdW4fiU0v-86" value="" style="shape=tableRow;horizontal=0;startSize=0;swimlaneHead=0;swimlaneBody=0;fillColor=none;collapsible=0;dropTarget=0;points=[[0,0.5],[1,0.5]];portConstraint=eastwest;top=0;left=0;right=0;bottom=0;" parent="GjQhn9GalNSHdW4fiU0v-70" vertex="1">
                    <mxGeometry y="240" width="190" height="30" as="geometry"/>
                </mxCell>
                <mxCell id="GjQhn9GalNSHdW4fiU0v-87" value="" style="shape=partialRectangle;connectable=0;fillColor=none;top=0;left=0;bottom=0;right=0;editable=1;overflow=hidden;" parent="GjQhn9GalNSHdW4fiU0v-86" vertex="1">
                    <mxGeometry width="30" height="30" as="geometry">
                        <mxRectangle width="30" height="30" as="alternateBounds"/>
                    </mxGeometry>
                </mxCell>
                <mxCell id="GjQhn9GalNSHdW4fiU0v-88" value="예매시간" style="shape=partialRectangle;connectable=0;fillColor=none;top=0;left=0;bottom=0;right=0;align=left;spacingLeft=6;overflow=hidden;" parent="GjQhn9GalNSHdW4fiU0v-86" vertex="1">
                    <mxGeometry x="30" width="160" height="30" as="geometry">
                        <mxRectangle width="160" height="30" as="alternateBounds"/>
                    </mxGeometry>
                </mxCell>
                <mxCell id="GjQhn9GalNSHdW4fiU0v-104" value="문의" style="shape=table;startSize=30;container=1;collapsible=1;childLayout=tableLayout;fixedRows=1;rowLines=0;fontStyle=1;align=center;resizeLast=1;fillColor=default;fontColor=#333333;strokeColor=#666666;gradientColor=none;swimlaneFillColor=default;" parent="1" vertex="1">
                    <mxGeometry x="690" y="300" width="190" height="240" as="geometry"/>
                </mxCell>
                <mxCell id="GjQhn9GalNSHdW4fiU0v-105" value="" style="shape=tableRow;horizontal=0;startSize=0;swimlaneHead=0;swimlaneBody=0;fillColor=none;collapsible=0;dropTarget=0;points=[[0,0.5],[1,0.5]];portConstraint=eastwest;top=0;left=0;right=0;bottom=1;" parent="GjQhn9GalNSHdW4fiU0v-104" vertex="1">
                    <mxGeometry y="30" width="190" height="30" as="geometry"/>
                </mxCell>
                <mxCell id="GjQhn9GalNSHdW4fiU0v-106" value="PK" style="shape=partialRectangle;connectable=0;fillColor=none;top=0;left=0;bottom=0;right=0;fontStyle=1;overflow=hidden;" parent="GjQhn9GalNSHdW4fiU0v-105" vertex="1">
                    <mxGeometry width="30" height="30" as="geometry">
                        <mxRectangle width="30" height="30" as="alternateBounds"/>
                    </mxGeometry>
                </mxCell>
                <mxCell id="GjQhn9GalNSHdW4fiU0v-107" value="문의 번호" style="shape=partialRectangle;connectable=0;fillColor=none;top=0;left=0;bottom=0;right=0;align=left;spacingLeft=6;fontStyle=5;overflow=hidden;" parent="GjQhn9GalNSHdW4fiU0v-105" vertex="1">
                    <mxGeometry x="30" width="160" height="30" as="geometry">
                        <mxRectangle width="160" height="30" as="alternateBounds"/>
                    </mxGeometry>
                </mxCell>
                <mxCell id="GjQhn9GalNSHdW4fiU0v-161" value="" style="shape=tableRow;horizontal=0;startSize=0;swimlaneHead=0;swimlaneBody=0;fillColor=none;collapsible=0;dropTarget=0;points=[[0,0.5],[1,0.5]];portConstraint=eastwest;top=0;left=0;right=0;bottom=1;" parent="GjQhn9GalNSHdW4fiU0v-104" vertex="1">
                    <mxGeometry y="60" width="190" height="30" as="geometry"/>
                </mxCell>
                <mxCell id="GjQhn9GalNSHdW4fiU0v-162" value="FK" style="shape=partialRectangle;connectable=0;fillColor=none;top=0;left=0;bottom=0;right=0;fontStyle=1;overflow=hidden;" parent="GjQhn9GalNSHdW4fiU0v-161" vertex="1">
                    <mxGeometry width="30" height="30" as="geometry">
                        <mxRectangle width="30" height="30" as="alternateBounds"/>
                    </mxGeometry>
                </mxCell>
                <mxCell id="GjQhn9GalNSHdW4fiU0v-163" value="회원 아이디" style="shape=partialRectangle;connectable=0;fillColor=none;top=0;left=0;bottom=0;right=0;align=left;spacingLeft=6;fontStyle=5;overflow=hidden;" parent="GjQhn9GalNSHdW4fiU0v-161" vertex="1">
                    <mxGeometry x="30" width="160" height="30" as="geometry">
                        <mxRectangle width="160" height="30" as="alternateBounds"/>
                    </mxGeometry>
                </mxCell>
                <mxCell id="GjQhn9GalNSHdW4fiU0v-108" value="" style="shape=tableRow;horizontal=0;startSize=0;swimlaneHead=0;swimlaneBody=0;fillColor=none;collapsible=0;dropTarget=0;points=[[0,0.5],[1,0.5]];portConstraint=eastwest;top=0;left=0;right=0;bottom=0;" parent="GjQhn9GalNSHdW4fiU0v-104" vertex="1">
                    <mxGeometry y="90" width="190" height="30" as="geometry"/>
                </mxCell>
                <mxCell id="GjQhn9GalNSHdW4fiU0v-109" value="" style="shape=partialRectangle;connectable=0;fillColor=none;top=0;left=0;bottom=0;right=0;editable=1;overflow=hidden;" parent="GjQhn9GalNSHdW4fiU0v-108" vertex="1">
                    <mxGeometry width="30" height="30" as="geometry">
                        <mxRectangle width="30" height="30" as="alternateBounds"/>
                    </mxGeometry>
                </mxCell>
                <mxCell id="GjQhn9GalNSHdW4fiU0v-110" value="제목" style="shape=partialRectangle;connectable=0;fillColor=none;top=0;left=0;bottom=0;right=0;align=left;spacingLeft=6;overflow=hidden;" parent="GjQhn9GalNSHdW4fiU0v-108" vertex="1">
                    <mxGeometry x="30" width="160" height="30" as="geometry">
                        <mxRectangle width="160" height="30" as="alternateBounds"/>
                    </mxGeometry>
                </mxCell>
                <mxCell id="GjQhn9GalNSHdW4fiU0v-111" value="" style="shape=tableRow;horizontal=0;startSize=0;swimlaneHead=0;swimlaneBody=0;fillColor=none;collapsible=0;dropTarget=0;points=[[0,0.5],[1,0.5]];portConstraint=eastwest;top=0;left=0;right=0;bottom=0;" parent="GjQhn9GalNSHdW4fiU0v-104" vertex="1">
                    <mxGeometry y="120" width="190" height="30" as="geometry"/>
                </mxCell>
                <mxCell id="GjQhn9GalNSHdW4fiU0v-112" value="" style="shape=partialRectangle;connectable=0;fillColor=none;top=0;left=0;bottom=0;right=0;editable=1;overflow=hidden;" parent="GjQhn9GalNSHdW4fiU0v-111" vertex="1">
                    <mxGeometry width="30" height="30" as="geometry">
                        <mxRectangle width="30" height="30" as="alternateBounds"/>
                    </mxGeometry>
                </mxCell>
                <mxCell id="GjQhn9GalNSHdW4fiU0v-113" value="내용" style="shape=partialRectangle;connectable=0;fillColor=none;top=0;left=0;bottom=0;right=0;align=left;spacingLeft=6;overflow=hidden;" parent="GjQhn9GalNSHdW4fiU0v-111" vertex="1">
                    <mxGeometry x="30" width="160" height="30" as="geometry">
                        <mxRectangle width="160" height="30" as="alternateBounds"/>
                    </mxGeometry>
                </mxCell>
                <mxCell id="GjQhn9GalNSHdW4fiU0v-114" value="" style="shape=tableRow;horizontal=0;startSize=0;swimlaneHead=0;swimlaneBody=0;fillColor=none;collapsible=0;dropTarget=0;points=[[0,0.5],[1,0.5]];portConstraint=eastwest;top=0;left=0;right=0;bottom=0;" parent="GjQhn9GalNSHdW4fiU0v-104" vertex="1">
                    <mxGeometry y="150" width="190" height="30" as="geometry"/>
                </mxCell>
                <mxCell id="GjQhn9GalNSHdW4fiU0v-115" value="" style="shape=partialRectangle;connectable=0;fillColor=none;top=0;left=0;bottom=0;right=0;editable=1;overflow=hidden;" parent="GjQhn9GalNSHdW4fiU0v-114" vertex="1">
                    <mxGeometry width="30" height="30" as="geometry">
                        <mxRectangle width="30" height="30" as="alternateBounds"/>
                    </mxGeometry>
                </mxCell>
                <mxCell id="GjQhn9GalNSHdW4fiU0v-116" value="카테고리" style="shape=partialRectangle;connectable=0;fillColor=none;top=0;left=0;bottom=0;right=0;align=left;spacingLeft=6;overflow=hidden;" parent="GjQhn9GalNSHdW4fiU0v-114" vertex="1">
                    <mxGeometry x="30" width="160" height="30" as="geometry">
                        <mxRectangle width="160" height="30" as="alternateBounds"/>
                    </mxGeometry>
                </mxCell>
                <mxCell id="GjQhn9GalNSHdW4fiU0v-117" value="" style="shape=tableRow;horizontal=0;startSize=0;swimlaneHead=0;swimlaneBody=0;fillColor=none;collapsible=0;dropTarget=0;points=[[0,0.5],[1,0.5]];portConstraint=eastwest;top=0;left=0;right=0;bottom=0;" parent="GjQhn9GalNSHdW4fiU0v-104" vertex="1">
                    <mxGeometry y="180" width="190" height="30" as="geometry"/>
                </mxCell>
                <mxCell id="GjQhn9GalNSHdW4fiU0v-118" value="" style="shape=partialRectangle;connectable=0;fillColor=none;top=0;left=0;bottom=0;right=0;editable=1;overflow=hidden;" parent="GjQhn9GalNSHdW4fiU0v-117" vertex="1">
                    <mxGeometry width="30" height="30" as="geometry">
                        <mxRectangle width="30" height="30" as="alternateBounds"/>
                    </mxGeometry>
                </mxCell>
                <mxCell id="GjQhn9GalNSHdW4fiU0v-119" value="문의 상태" style="shape=partialRectangle;connectable=0;fillColor=none;top=0;left=0;bottom=0;right=0;align=left;spacingLeft=6;overflow=hidden;" parent="GjQhn9GalNSHdW4fiU0v-117" vertex="1">
                    <mxGeometry x="30" width="160" height="30" as="geometry">
                        <mxRectangle width="160" height="30" as="alternateBounds"/>
                    </mxGeometry>
                </mxCell>
                <mxCell id="GjQhn9GalNSHdW4fiU0v-120" value="" style="shape=tableRow;horizontal=0;startSize=0;swimlaneHead=0;swimlaneBody=0;fillColor=none;collapsible=0;dropTarget=0;points=[[0,0.5],[1,0.5]];portConstraint=eastwest;top=0;left=0;right=0;bottom=0;" parent="GjQhn9GalNSHdW4fiU0v-104" vertex="1">
                    <mxGeometry y="210" width="190" height="30" as="geometry"/>
                </mxCell>
                <mxCell id="GjQhn9GalNSHdW4fiU0v-121" value="" style="shape=partialRectangle;connectable=0;fillColor=none;top=0;left=0;bottom=0;right=0;editable=1;overflow=hidden;" parent="GjQhn9GalNSHdW4fiU0v-120" vertex="1">
                    <mxGeometry width="30" height="30" as="geometry">
                        <mxRectangle width="30" height="30" as="alternateBounds"/>
                    </mxGeometry>
                </mxCell>
                <mxCell id="GjQhn9GalNSHdW4fiU0v-122" value="답변" style="shape=partialRectangle;connectable=0;fillColor=none;top=0;left=0;bottom=0;right=0;align=left;spacingLeft=6;overflow=hidden;" parent="GjQhn9GalNSHdW4fiU0v-120" vertex="1">
                    <mxGeometry x="30" width="160" height="30" as="geometry">
                        <mxRectangle width="160" height="30" as="alternateBounds"/>
                    </mxGeometry>
                </mxCell>
                <mxCell id="GjQhn9GalNSHdW4fiU0v-123" value="회원 리뷰" style="shape=table;startSize=30;container=1;collapsible=1;childLayout=tableLayout;fixedRows=1;rowLines=0;fontStyle=1;align=center;resizeLast=1;fillColor=default;fontColor=#333333;strokeColor=#666666;gradientColor=none;swimlaneFillColor=default;" parent="1" vertex="1">
                    <mxGeometry x="690" y="50" width="190" height="180" as="geometry"/>
                </mxCell>
                <mxCell id="GjQhn9GalNSHdW4fiU0v-218" value="" style="shape=tableRow;horizontal=0;startSize=0;swimlaneHead=0;swimlaneBody=0;fillColor=none;collapsible=0;dropTarget=0;points=[[0,0.5],[1,0.5]];portConstraint=eastwest;top=0;left=0;right=0;bottom=1;" parent="GjQhn9GalNSHdW4fiU0v-123" vertex="1">
                    <mxGeometry y="30" width="190" height="30" as="geometry"/>
                </mxCell>
                <mxCell id="GjQhn9GalNSHdW4fiU0v-219" value="PK" style="shape=partialRectangle;connectable=0;fillColor=none;top=0;left=0;bottom=0;right=0;fontStyle=1;overflow=hidden;" parent="GjQhn9GalNSHdW4fiU0v-218" vertex="1">
                    <mxGeometry width="30" height="30" as="geometry">
                        <mxRectangle width="30" height="30" as="alternateBounds"/>
                    </mxGeometry>
                </mxCell>
                <mxCell id="GjQhn9GalNSHdW4fiU0v-220" value="리뷰번호" style="shape=partialRectangle;connectable=0;fillColor=none;top=0;left=0;bottom=0;right=0;align=left;spacingLeft=6;fontStyle=5;overflow=hidden;" parent="GjQhn9GalNSHdW4fiU0v-218" vertex="1">
                    <mxGeometry x="30" width="160" height="30" as="geometry">
                        <mxRectangle width="160" height="30" as="alternateBounds"/>
                    </mxGeometry>
                </mxCell>
                <mxCell id="GjQhn9GalNSHdW4fiU0v-212" value="" style="shape=tableRow;horizontal=0;startSize=0;swimlaneHead=0;swimlaneBody=0;fillColor=none;collapsible=0;dropTarget=0;points=[[0,0.5],[1,0.5]];portConstraint=eastwest;top=0;left=0;right=0;bottom=1;" parent="GjQhn9GalNSHdW4fiU0v-123" vertex="1">
                    <mxGeometry y="60" width="190" height="30" as="geometry"/>
                </mxCell>
                <mxCell id="GjQhn9GalNSHdW4fiU0v-213" value="FK" style="shape=partialRectangle;connectable=0;fillColor=none;top=0;left=0;bottom=0;right=0;fontStyle=1;overflow=hidden;" parent="GjQhn9GalNSHdW4fiU0v-212" vertex="1">
                    <mxGeometry width="30" height="30" as="geometry">
                        <mxRectangle width="30" height="30" as="alternateBounds"/>
                    </mxGeometry>
                </mxCell>
                <mxCell id="GjQhn9GalNSHdW4fiU0v-214" value="예매번호" style="shape=partialRectangle;connectable=0;fillColor=none;top=0;left=0;bottom=0;right=0;align=left;spacingLeft=6;fontStyle=5;overflow=hidden;" parent="GjQhn9GalNSHdW4fiU0v-212" vertex="1">
                    <mxGeometry x="30" width="160" height="30" as="geometry">
                        <mxRectangle width="160" height="30" as="alternateBounds"/>
                    </mxGeometry>
                </mxCell>
                <mxCell id="GjQhn9GalNSHdW4fiU0v-124" value="" style="shape=tableRow;horizontal=0;startSize=0;swimlaneHead=0;swimlaneBody=0;fillColor=none;collapsible=0;dropTarget=0;points=[[0,0.5],[1,0.5]];portConstraint=eastwest;top=0;left=0;right=0;bottom=1;" parent="GjQhn9GalNSHdW4fiU0v-123" vertex="1">
                    <mxGeometry y="90" width="190" height="30" as="geometry"/>
                </mxCell>
                <mxCell id="GjQhn9GalNSHdW4fiU0v-125" value="FK" style="shape=partialRectangle;connectable=0;fillColor=none;top=0;left=0;bottom=0;right=0;fontStyle=1;overflow=hidden;" parent="GjQhn9GalNSHdW4fiU0v-124" vertex="1">
                    <mxGeometry width="30" height="30" as="geometry">
                        <mxRectangle width="30" height="30" as="alternateBounds"/>
                    </mxGeometry>
                </mxCell>
                <mxCell id="GjQhn9GalNSHdW4fiU0v-126" value="회원아이디" style="shape=partialRectangle;connectable=0;fillColor=none;top=0;left=0;bottom=0;right=0;align=left;spacingLeft=6;fontStyle=5;overflow=hidden;" parent="GjQhn9GalNSHdW4fiU0v-124" vertex="1">
                    <mxGeometry x="30" width="160" height="30" as="geometry">
                        <mxRectangle width="160" height="30" as="alternateBounds"/>
                    </mxGeometry>
                </mxCell>
                <mxCell id="GjQhn9GalNSHdW4fiU0v-127" value="" style="shape=tableRow;horizontal=0;startSize=0;swimlaneHead=0;swimlaneBody=0;fillColor=none;collapsible=0;dropTarget=0;points=[[0,0.5],[1,0.5]];portConstraint=eastwest;top=0;left=0;right=0;bottom=0;" parent="GjQhn9GalNSHdW4fiU0v-123" vertex="1">
                    <mxGeometry y="120" width="190" height="30" as="geometry"/>
                </mxCell>
                <mxCell id="GjQhn9GalNSHdW4fiU0v-128" value="" style="shape=partialRectangle;connectable=0;fillColor=none;top=0;left=0;bottom=0;right=0;editable=1;overflow=hidden;" parent="GjQhn9GalNSHdW4fiU0v-127" vertex="1">
                    <mxGeometry width="30" height="30" as="geometry">
                        <mxRectangle width="30" height="30" as="alternateBounds"/>
                    </mxGeometry>
                </mxCell>
                <mxCell id="GjQhn9GalNSHdW4fiU0v-129" value="내용" style="shape=partialRectangle;connectable=0;fillColor=none;top=0;left=0;bottom=0;right=0;align=left;spacingLeft=6;overflow=hidden;" parent="GjQhn9GalNSHdW4fiU0v-127" vertex="1">
                    <mxGeometry x="30" width="160" height="30" as="geometry">
                        <mxRectangle width="160" height="30" as="alternateBounds"/>
                    </mxGeometry>
                </mxCell>
                <mxCell id="GjQhn9GalNSHdW4fiU0v-130" value="" style="shape=tableRow;horizontal=0;startSize=0;swimlaneHead=0;swimlaneBody=0;fillColor=none;collapsible=0;dropTarget=0;points=[[0,0.5],[1,0.5]];portConstraint=eastwest;top=0;left=0;right=0;bottom=0;" parent="GjQhn9GalNSHdW4fiU0v-123" vertex="1">
                    <mxGeometry y="150" width="190" height="30" as="geometry"/>
                </mxCell>
                <mxCell id="GjQhn9GalNSHdW4fiU0v-131" value="" style="shape=partialRectangle;connectable=0;fillColor=none;top=0;left=0;bottom=0;right=0;editable=1;overflow=hidden;" parent="GjQhn9GalNSHdW4fiU0v-130" vertex="1">
                    <mxGeometry width="30" height="30" as="geometry">
                        <mxRectangle width="30" height="30" as="alternateBounds"/>
                    </mxGeometry>
                </mxCell>
                <mxCell id="GjQhn9GalNSHdW4fiU0v-132" value="평점" style="shape=partialRectangle;connectable=0;fillColor=none;top=0;left=0;bottom=0;right=0;align=left;spacingLeft=6;overflow=hidden;" parent="GjQhn9GalNSHdW4fiU0v-130" vertex="1">
                    <mxGeometry x="30" width="160" height="30" as="geometry">
                        <mxRectangle width="160" height="30" as="alternateBounds"/>
                    </mxGeometry>
                </mxCell>
                <mxCell id="GjQhn9GalNSHdW4fiU0v-164" value="비회원 게스트" style="shape=table;startSize=30;container=1;collapsible=1;childLayout=tableLayout;fixedRows=1;rowLines=0;fontStyle=1;align=center;resizeLast=1;fillColor=default;fontColor=#333333;strokeColor=#666666;gradientColor=none;swimlaneFillColor=default;" parent="1" vertex="1">
                    <mxGeometry x="250" y="570" width="190" height="120" as="geometry"/>
                </mxCell>
                <mxCell id="GjQhn9GalNSHdW4fiU0v-165" value="" style="shape=tableRow;horizontal=0;startSize=0;swimlaneHead=0;swimlaneBody=0;fillColor=none;collapsible=0;dropTarget=0;points=[[0,0.5],[1,0.5]];portConstraint=eastwest;top=0;left=0;right=0;bottom=1;" parent="GjQhn9GalNSHdW4fiU0v-164" vertex="1">
                    <mxGeometry y="30" width="190" height="30" as="geometry"/>
                </mxCell>
                <mxCell id="GjQhn9GalNSHdW4fiU0v-166" value="FK" style="shape=partialRectangle;connectable=0;fillColor=none;top=0;left=0;bottom=0;right=0;fontStyle=1;overflow=hidden;" parent="GjQhn9GalNSHdW4fiU0v-165" vertex="1">
                    <mxGeometry width="30" height="30" as="geometry">
                        <mxRectangle width="30" height="30" as="alternateBounds"/>
                    </mxGeometry>
                </mxCell>
                <mxCell id="GjQhn9GalNSHdW4fiU0v-167" value="예매번호" style="shape=partialRectangle;connectable=0;fillColor=none;top=0;left=0;bottom=0;right=0;align=left;spacingLeft=6;fontStyle=5;overflow=hidden;" parent="GjQhn9GalNSHdW4fiU0v-165" vertex="1">
                    <mxGeometry x="30" width="160" height="30" as="geometry">
                        <mxRectangle width="160" height="30" as="alternateBounds"/>
                    </mxGeometry>
                </mxCell>
                <mxCell id="GjQhn9GalNSHdW4fiU0v-168" value="" style="shape=tableRow;horizontal=0;startSize=0;swimlaneHead=0;swimlaneBody=0;fillColor=none;collapsible=0;dropTarget=0;points=[[0,0.5],[1,0.5]];portConstraint=eastwest;top=0;left=0;right=0;bottom=0;" parent="GjQhn9GalNSHdW4fiU0v-164" vertex="1">
                    <mxGeometry y="60" width="190" height="30" as="geometry"/>
                </mxCell>
                <mxCell id="GjQhn9GalNSHdW4fiU0v-169" value="" style="shape=partialRectangle;connectable=0;fillColor=none;top=0;left=0;bottom=0;right=0;editable=1;overflow=hidden;" parent="GjQhn9GalNSHdW4fiU0v-168" vertex="1">
                    <mxGeometry width="30" height="30" as="geometry">
                        <mxRectangle width="30" height="30" as="alternateBounds"/>
                    </mxGeometry>
                </mxCell>
                <mxCell id="GjQhn9GalNSHdW4fiU0v-170" value="생일" style="shape=partialRectangle;connectable=0;fillColor=none;top=0;left=0;bottom=0;right=0;align=left;spacingLeft=6;overflow=hidden;" parent="GjQhn9GalNSHdW4fiU0v-168" vertex="1">
                    <mxGeometry x="30" width="160" height="30" as="geometry">
                        <mxRectangle width="160" height="30" as="alternateBounds"/>
                    </mxGeometry>
                </mxCell>
                <mxCell id="GjQhn9GalNSHdW4fiU0v-171" value="" style="shape=tableRow;horizontal=0;startSize=0;swimlaneHead=0;swimlaneBody=0;fillColor=none;collapsible=0;dropTarget=0;points=[[0,0.5],[1,0.5]];portConstraint=eastwest;top=0;left=0;right=0;bottom=0;" parent="GjQhn9GalNSHdW4fiU0v-164" vertex="1">
                    <mxGeometry y="90" width="190" height="30" as="geometry"/>
                </mxCell>
                <mxCell id="GjQhn9GalNSHdW4fiU0v-172" value="" style="shape=partialRectangle;connectable=0;fillColor=none;top=0;left=0;bottom=0;right=0;editable=1;overflow=hidden;" parent="GjQhn9GalNSHdW4fiU0v-171" vertex="1">
                    <mxGeometry width="30" height="30" as="geometry">
                        <mxRectangle width="30" height="30" as="alternateBounds"/>
                    </mxGeometry>
                </mxCell>
                <mxCell id="GjQhn9GalNSHdW4fiU0v-173" value="전화번호" style="shape=partialRectangle;connectable=0;fillColor=none;top=0;left=0;bottom=0;right=0;align=left;spacingLeft=6;overflow=hidden;" parent="GjQhn9GalNSHdW4fiU0v-171" vertex="1">
                    <mxGeometry x="30" width="160" height="30" as="geometry">
                        <mxRectangle width="160" height="30" as="alternateBounds"/>
                    </mxGeometry>
                </mxCell>
                <mxCell id="GjQhn9GalNSHdW4fiU0v-183" value="관리자" style="shape=table;startSize=30;container=1;collapsible=1;childLayout=tableLayout;fixedRows=1;rowLines=0;fontStyle=1;align=center;resizeLast=1;fillColor=default;fontColor=#333333;strokeColor=#666666;gradientColor=none;swimlaneFillColor=default;" parent="1" vertex="1">
                    <mxGeometry x="20" y="50" width="190" height="120" as="geometry"/>
                </mxCell>
                <mxCell id="GjQhn9GalNSHdW4fiU0v-184" value="" style="shape=tableRow;horizontal=0;startSize=0;swimlaneHead=0;swimlaneBody=0;fillColor=none;collapsible=0;dropTarget=0;points=[[0,0.5],[1,0.5]];portConstraint=eastwest;top=0;left=0;right=0;bottom=1;" parent="GjQhn9GalNSHdW4fiU0v-183" vertex="1">
                    <mxGeometry y="30" width="190" height="30" as="geometry"/>
                </mxCell>
                <mxCell id="GjQhn9GalNSHdW4fiU0v-185" value="PK" style="shape=partialRectangle;connectable=0;fillColor=none;top=0;left=0;bottom=0;right=0;fontStyle=1;overflow=hidden;" parent="GjQhn9GalNSHdW4fiU0v-184" vertex="1">
                    <mxGeometry width="30" height="30" as="geometry">
                        <mxRectangle width="30" height="30" as="alternateBounds"/>
                    </mxGeometry>
                </mxCell>
                <mxCell id="GjQhn9GalNSHdW4fiU0v-186" value="관리자 아이디" style="shape=partialRectangle;connectable=0;fillColor=none;top=0;left=0;bottom=0;right=0;align=left;spacingLeft=6;fontStyle=5;overflow=hidden;" parent="GjQhn9GalNSHdW4fiU0v-184" vertex="1">
                    <mxGeometry x="30" width="160" height="30" as="geometry">
                        <mxRectangle width="160" height="30" as="alternateBounds"/>
                    </mxGeometry>
                </mxCell>
                <mxCell id="GjQhn9GalNSHdW4fiU0v-187" value="" style="shape=tableRow;horizontal=0;startSize=0;swimlaneHead=0;swimlaneBody=0;fillColor=none;collapsible=0;dropTarget=0;points=[[0,0.5],[1,0.5]];portConstraint=eastwest;top=0;left=0;right=0;bottom=0;" parent="GjQhn9GalNSHdW4fiU0v-183" vertex="1">
                    <mxGeometry y="60" width="190" height="30" as="geometry"/>
                </mxCell>
                <mxCell id="GjQhn9GalNSHdW4fiU0v-188" value="" style="shape=partialRectangle;connectable=0;fillColor=none;top=0;left=0;bottom=0;right=0;editable=1;overflow=hidden;" parent="GjQhn9GalNSHdW4fiU0v-187" vertex="1">
                    <mxGeometry width="30" height="30" as="geometry">
                        <mxRectangle width="30" height="30" as="alternateBounds"/>
                    </mxGeometry>
                </mxCell>
                <mxCell id="GjQhn9GalNSHdW4fiU0v-189" value="비밀번호" style="shape=partialRectangle;connectable=0;fillColor=none;top=0;left=0;bottom=0;right=0;align=left;spacingLeft=6;overflow=hidden;" parent="GjQhn9GalNSHdW4fiU0v-187" vertex="1">
                    <mxGeometry x="30" width="160" height="30" as="geometry">
                        <mxRectangle width="160" height="30" as="alternateBounds"/>
                    </mxGeometry>
                </mxCell>
                <mxCell id="GjQhn9GalNSHdW4fiU0v-193" value="" style="shape=tableRow;horizontal=0;startSize=0;swimlaneHead=0;swimlaneBody=0;fillColor=none;collapsible=0;dropTarget=0;points=[[0,0.5],[1,0.5]];portConstraint=eastwest;top=0;left=0;right=0;bottom=0;" parent="GjQhn9GalNSHdW4fiU0v-183" vertex="1">
                    <mxGeometry y="90" width="190" height="30" as="geometry"/>
                </mxCell>
                <mxCell id="GjQhn9GalNSHdW4fiU0v-194" value="" style="shape=partialRectangle;connectable=0;fillColor=none;top=0;left=0;bottom=0;right=0;editable=1;overflow=hidden;" parent="GjQhn9GalNSHdW4fiU0v-193" vertex="1">
                    <mxGeometry width="30" height="30" as="geometry">
                        <mxRectangle width="30" height="30" as="alternateBounds"/>
                    </mxGeometry>
                </mxCell>
                <mxCell id="GjQhn9GalNSHdW4fiU0v-195" value="관리" style="shape=partialRectangle;connectable=0;fillColor=none;top=0;left=0;bottom=0;right=0;align=left;spacingLeft=6;overflow=hidden;" parent="GjQhn9GalNSHdW4fiU0v-193" vertex="1">
                    <mxGeometry x="30" width="160" height="30" as="geometry">
                        <mxRectangle width="160" height="30" as="alternateBounds"/>
                    </mxGeometry>
                </mxCell>
                <mxCell id="GjQhn9GalNSHdW4fiU0v-198" value="" style="edgeStyle=entityRelationEdgeStyle;fontSize=12;html=1;endArrow=ERoneToMany;exitX=1;exitY=0.5;exitDx=0;exitDy=0;entryX=0;entryY=0.5;entryDx=0;entryDy=0;" parent="1" source="GjQhn9GalNSHdW4fiU0v-8" target="GjQhn9GalNSHdW4fiU0v-161" edge="1">
                    <mxGeometry width="100" height="100" relative="1" as="geometry">
                        <mxPoint x="140" y="290" as="sourcePoint"/>
                        <mxPoint x="240" y="190" as="targetPoint"/>
                    </mxGeometry>
                </mxCell>
                <mxCell id="GjQhn9GalNSHdW4fiU0v-208" value="" style="edgeStyle=entityRelationEdgeStyle;fontSize=12;html=1;endArrow=ERoneToMany;" parent="1" source="GjQhn9GalNSHdW4fiU0v-8" target="GjQhn9GalNSHdW4fiU0v-40" edge="1">
                    <mxGeometry width="100" height="100" relative="1" as="geometry">
                        <mxPoint x="240" y="610" as="sourcePoint"/>
                        <mxPoint x="340" y="510" as="targetPoint"/>
                    </mxGeometry>
                </mxCell>
                <mxCell id="GjQhn9GalNSHdW4fiU0v-209" value="" style="edgeStyle=entityRelationEdgeStyle;fontSize=12;html=1;endArrow=ERoneToMany;" parent="1" source="GjQhn9GalNSHdW4fiU0v-199" target="GjQhn9GalNSHdW4fiU0v-205" edge="1">
                    <mxGeometry width="100" height="100" relative="1" as="geometry">
                        <mxPoint x="240" y="610" as="sourcePoint"/>
                        <mxPoint x="340" y="510" as="targetPoint"/>
                    </mxGeometry>
                </mxCell>
                <mxCell id="GjQhn9GalNSHdW4fiU0v-210" value="" style="edgeStyle=entityRelationEdgeStyle;fontSize=12;html=1;endArrow=ERoneToMany;exitX=0;exitY=0.5;exitDx=0;exitDy=0;" parent="1" source="GjQhn9GalNSHdW4fiU0v-71" target="GjQhn9GalNSHdW4fiU0v-165" edge="1">
                    <mxGeometry width="100" height="100" relative="1" as="geometry">
                        <mxPoint x="240" y="610" as="sourcePoint"/>
                        <mxPoint x="340" y="510" as="targetPoint"/>
                    </mxGeometry>
                </mxCell>
                <mxCell id="GjQhn9GalNSHdW4fiU0v-211" value="" style="edgeStyle=entityRelationEdgeStyle;fontSize=12;html=1;endArrow=ERoneToMany;exitX=1;exitY=0.5;exitDx=0;exitDy=0;entryX=0;entryY=0.5;entryDx=0;entryDy=0;" parent="1" source="GjQhn9GalNSHdW4fiU0v-8" target="GjQhn9GalNSHdW4fiU0v-202" edge="1">
                    <mxGeometry width="100" height="100" relative="1" as="geometry">
                        <mxPoint x="240" y="610" as="sourcePoint"/>
                        <mxPoint x="340" y="510" as="targetPoint"/>
                    </mxGeometry>
                </mxCell>
                <mxCell id="GjQhn9GalNSHdW4fiU0v-221" value="" style="edgeStyle=entityRelationEdgeStyle;fontSize=12;html=1;endArrow=ERoneToMany;exitX=1;exitY=0.5;exitDx=0;exitDy=0;" parent="1" source="GjQhn9GalNSHdW4fiU0v-8" target="GjQhn9GalNSHdW4fiU0v-124" edge="1">
                    <mxGeometry width="100" height="100" relative="1" as="geometry">
                        <mxPoint x="500" y="100" as="sourcePoint"/>
                        <mxPoint x="219" y="405" as="targetPoint"/>
                    </mxGeometry>
                </mxCell>
                <mxCell id="GjQhn9GalNSHdW4fiU0v-222" value="" style="edgeStyle=entityRelationEdgeStyle;fontSize=12;html=1;endArrow=ERoneToMany;exitX=1;exitY=0.5;exitDx=0;exitDy=0;" parent="1" source="GjQhn9GalNSHdW4fiU0v-71" target="GjQhn9GalNSHdW4fiU0v-212" edge="1">
                    <mxGeometry width="100" height="100" relative="1" as="geometry">
                        <mxPoint x="940" y="650" as="sourcePoint"/>
                        <mxPoint x="930" y="125" as="targetPoint"/>
                    </mxGeometry>
                </mxCell>
                <mxCell id="GjQhn9GalNSHdW4fiU0v-226" value="" style="edgeStyle=entityRelationEdgeStyle;fontSize=12;html=1;endArrow=ERoneToMany;exitX=1;exitY=0.5;exitDx=0;exitDy=0;entryX=1;entryY=0.5;entryDx=0;entryDy=0;" parent="1" source="GjQhn9GalNSHdW4fiU0v-184" target="GjQhn9GalNSHdW4fiU0v-223" edge="1">
                    <mxGeometry width="100" height="100" relative="1" as="geometry">
                        <mxPoint x="311" y="90" as="sourcePoint"/>
                        <mxPoint x="200" y="390" as="targetPoint"/>
                    </mxGeometry>
                </mxCell>
            </root>
        </mxGraphModel>
    </diagram>
    <diagram id="MD73eoYWsi9eHy5g9Hbc" name="Page-3">
        <mxGraphModel dx="830" dy="590" grid="0" gridSize="10" guides="1" tooltips="1" connect="1" arrows="1" fold="1" page="1" pageScale="1" pageWidth="850" pageHeight="1100" background="#000000" math="0" shadow="0">
            <root>
                <mxCell id="0"/>
                <mxCell id="1" parent="0"/>
            </root>
        </mxGraphModel>
    </diagram>
</mxfile>